<svg width="81" height="77" viewBox="0 0 81 77" fill="none" xmlns="http://www.w3.org/2000/svg">
<ellipse cx="40.5" cy="38.5" rx="40.5" ry="38.5" fill="white"/>
<path fill-rule="evenodd" clip-rule="evenodd" d="M44.5846 25.1703C44.524 25.268 44.283 25.3037 44.0282 25.253C43.7686 25.2011 43.1296 25.3006 42.5165 25.4881C41.9323 25.6668 41.0734 25.9857 40.6076 26.1967C40.1419 26.4079 39.3527 26.8939 38.8539 27.2767C38.3551 27.6597 37.6321 28.3432 37.2473 28.7958C36.8625 29.2483 36.1874 30.2534 35.7474 31.0294C35.3072 31.8053 34.8092 32.8626 34.6409 33.3789C34.4724 33.8952 34.2496 34.7053 34.146 35.1791C34.0201 35.7543 33.9339 38.5508 33.8868 43.5937C33.846 47.9613 33.8811 51.7926 33.9702 52.6786C34.057 53.5421 34.316 54.7894 34.5641 55.5379C34.817 56.3011 35.3202 57.3371 35.7475 57.9746C36.1564 58.5845 36.8415 59.4388 37.2699 59.873C37.6984 60.3073 38.5678 61.0051 39.2021 61.4237C39.8365 61.8422 40.9753 62.4523 41.7326 62.7795C42.4901 63.1066 43.6191 63.5151 44.2414 63.6872C44.8638 63.8592 45.4627 64 45.5725 64C45.7326 64 45.7719 60.1784 45.7719 44.5956C45.7719 25.191 45.7719 25.191 45.4186 25.0965C45.2242 25.0447 44.9812 25.0011 44.8784 25C44.7755 24.9988 44.6434 25.0754 44.5846 25.1703ZM47.6558 30.9108C47.6558 35.4717 47.6987 36.7464 47.8521 36.7499C47.9601 36.7524 51.352 36.7503 55.3899 36.7456C59.4277 36.7408 62.9415 36.695 63.198 36.6438C63.4545 36.5926 63.6335 36.5005 63.5955 36.4392C63.5575 36.378 63.7199 36.3277 63.9563 36.3277C64.1929 36.3277 65.0551 36.0105 65.8726 35.6229C66.6903 35.2352 67.8889 34.4949 68.5366 33.9777C69.1842 33.4607 70.0024 32.7232 70.3551 32.339C70.7075 31.9548 71.2572 31.1956 71.5767 30.6519C71.896 30.1082 72.2623 29.4129 72.3904 29.1067C72.5186 28.8005 72.5824 28.4203 72.532 28.2619C72.4816 28.1036 72.5091 27.9739 72.5932 27.9739C72.6774 27.9739 72.7063 27.822 72.6576 27.6362C72.6014 27.4218 72.6295 27.3356 72.7344 27.4003C72.8253 27.4564 72.9319 27.4145 72.9711 27.3073C73.0105 27.2001 73.0094 26.6727 72.9689 26.1353C72.895 25.1581 72.895 25.1581 60.2755 25.1172L47.6558 25.0761V30.9108ZM7.00028 25.5069C7.00405 25.7008 7.06779 26.1413 7.14205 26.4859C7.21631 26.8305 7.42998 27.5001 7.61681 27.9739C7.80379 28.4477 8.0553 29.1526 8.17588 29.5402C8.29661 29.9279 8.63745 30.6464 8.93355 31.137C9.22965 31.6276 9.77961 32.3932 10.1558 32.8384C10.5321 33.2837 11.2637 33.9838 11.7818 34.3945C12.2999 34.8052 13.2183 35.391 13.8228 35.6963C14.4272 36.0016 15.3535 36.362 15.8812 36.497C16.6794 36.7015 18.1198 36.7477 24.4468 36.7719C28.6302 36.7879 32.1369 36.7492 32.2393 36.6861C32.3416 36.623 32.4146 36.3462 32.4014 36.071C32.3881 35.7958 32.4273 35.3268 32.4887 35.0289C32.55 34.7308 32.6665 34.4072 32.7476 34.3096C32.8289 34.212 32.8511 34.088 32.7969 34.034C32.7428 33.9799 32.8056 33.7727 32.9365 33.5734C33.0674 33.374 33.4026 32.6642 33.6816 31.9958C33.9604 31.3275 34.5222 30.2725 34.93 29.6515C35.3378 29.0302 36.3367 27.8913 37.15 27.1204C37.9631 26.3496 38.6107 25.6623 38.5892 25.5932C38.5675 25.5243 38.6517 25.4677 38.7762 25.4677C38.9007 25.4677 39.0461 25.3972 39.0994 25.3111C39.1638 25.2071 33.7893 25.1545 23.0949 25.1545C6.99337 25.1545 6.99337 25.1545 7.00028 25.5069ZM20.5505 38.8641C20.4999 38.9955 20.5403 39.6124 20.6401 40.2347C20.7401 40.857 20.8433 41.4367 20.8695 41.5228C20.8957 41.609 20.9734 41.8909 21.0422 42.1494C21.1109 42.4078 21.2648 42.8124 21.384 43.0485C21.5031 43.2844 21.5981 43.514 21.5953 43.5585C21.5923 43.6031 21.7637 43.9817 21.9762 44.3998C22.1886 44.818 22.7252 45.5562 23.1686 46.0404C23.6121 46.5244 24.446 47.2499 25.0218 47.6523C25.5975 48.0548 26.6526 48.6526 27.3664 48.9807C28.0801 49.309 29.2406 49.7592 29.9452 49.9813C30.6498 50.2034 31.3177 50.3502 31.4292 50.3074C31.5408 50.2647 31.6738 50.2972 31.7248 50.3796C31.7758 50.462 31.876 50.5294 31.9474 50.5294C32.019 50.5294 32.1221 50.2297 32.1768 49.8637C32.2314 49.4976 32.2826 47.0834 32.2904 44.4989C32.2985 41.9144 32.2539 39.5356 32.1915 39.2125C32.078 38.6251 32.078 38.6251 26.5536 38.6251C22.3514 38.6251 20.9784 38.6719 20.8175 38.8209C20.6484 38.9775 20.6283 38.9775 20.7169 38.8209C20.7778 38.7133 20.786 38.6251 20.7351 38.6251C20.6841 38.6251 20.601 38.7327 20.5505 38.8641Z" fill="#E10715"/>
</svg>
