<?xml version="1.0" encoding="UTF-8"?>
<svg id="Layer_2" xmlns="http://www.w3.org/2000/svg" version="1.1" viewBox="0 0 1280 769">
  <!-- Generator: Adobe Illustrator 29.8.3, SVG Export Plug-In . SVG Version: 2.1.1 Build 3)  -->
  <defs>
    <style>
      .st0 {
        fill: #e10715;
      }
    </style>
  </defs>
  <g>
    <path class="st0" d="M435.67,628.04h-5.19v13.52h-3.26v-13.52h-5.19v-2.91h13.64v2.91Z"/>
    <path class="st0" d="M447.34,636.04h-2.84v5.52h-3.24v-16.43h7.82c3.57,0,5.87,2.21,5.87,5.49,0,2.63-1.48,4.53-4.01,5.19l4.86,5.75h-3.97l-4.48-5.52ZM448.86,628.02h-4.39v5.24h4.39c1.81,0,2.86-.96,2.86-2.61s-1.06-2.63-2.86-2.63Z"/>
    <path class="st0" d="M461.25,634.64v-9.51h3.24v9.46c0,2.7,1.53,4.37,3.99,4.37s3.97-1.67,3.97-4.37v-9.46h3.26v9.51c0,4.51-2.72,7.25-7.23,7.25s-7.23-2.75-7.23-7.25Z"/>
    <path class="st0" d="M481.56,639.61l1.69-2.42c1.39,1.13,3.33,1.78,5.3,1.78,2.18,0,3.57-.82,3.57-2.14,0-1.24-1.15-1.9-3.73-2.21-4.48-.54-6.43-2.04-6.43-4.98s2.68-4.88,6.55-4.88c2.23,0,4.46.73,6.15,1.97l-1.6,2.3c-1.31-.96-2.91-1.48-4.46-1.48-2.04,0-3.45.85-3.45,2.04s1.06,1.83,3.61,2.16c4.55.61,6.6,2.16,6.6,5.02,0,3.08-2.72,5.12-6.81,5.12-2.56,0-5.14-.82-7-2.3Z"/>
    <path class="st0" d="M513.34,628.04h-5.19v13.52h-3.26v-13.52h-5.19v-2.91h13.64v2.91Z"/>
    <path class="st0" d="M531.41,638.72v2.84h-12.49v-16.43h12.28v2.82h-9.08v3.92h8.66v2.75h-8.66v4.11h9.29Z"/>
    <path class="st0" d="M552.63,633.35c0,4.95-3.33,8.22-8.36,8.22h-6.48v-16.43h6.48c5.02,0,8.36,3.26,8.36,8.21ZM549.37,633.35c0-3.19-2.09-5.3-5.09-5.3h-3.24v10.61h3.24c3.03,0,5.09-2.11,5.09-5.31Z"/>
    <path class="st0" d="M581.76,636.98c0,2.89-2.23,4.58-6.06,4.58h-7.96v-16.43h7.96c3.43,0,5.54,1.64,5.54,4.37,0,1.62-.77,2.86-2.09,3.52,1.53.61,2.61,2.18,2.61,3.97ZM570.94,627.92v3.83h4.84c1.46,0,2.28-.7,2.28-1.9s-.85-1.92-2.28-1.92h-4.84ZM578.54,636.56c0-1.34-.96-2.11-2.53-2.11h-5.07v4.27h5.05c1.6,0,2.56-.82,2.56-2.16Z"/>
    <path class="st0" d="M595.16,635.01v6.55h-3.26v-6.53l-6.45-9.91h3.85l4.27,6.81,4.34-6.81h3.9l-6.64,9.88Z"/>
    <path class="st0" d="M629.22,630.93c0,3.54-2.39,5.82-6.13,5.82h-4.48v4.81h-3.24v-16.43h7.72c3.73,0,6.13,2.28,6.13,5.8ZM625.95,630.95c0-1.76-1.17-2.89-3-2.89h-4.37v5.77h4.37c1.83,0,3-1.13,3-2.89Z"/>
    <path class="st0" d="M641.04,636.04h-2.84v5.52h-3.24v-16.43h7.82c3.57,0,5.87,2.21,5.87,5.49,0,2.63-1.48,4.53-4.01,5.19l4.86,5.75h-3.97l-4.48-5.52ZM642.57,628.02h-4.39v5.24h4.39c1.81,0,2.86-.96,2.86-2.61s-1.06-2.63-2.86-2.63Z"/>
    <path class="st0" d="M654.16,633.35c0-5.16,3.45-8.59,8.66-8.59s8.64,3.43,8.64,8.59-3.45,8.59-8.64,8.59-8.66-3.43-8.66-8.59ZM668.18,633.35c0-3.36-2.16-5.63-5.35-5.63s-5.38,2.28-5.38,5.63,2.16,5.63,5.38,5.63,5.35-2.28,5.35-5.63Z"/>
    <path class="st0" d="M680.85,628.04v4.55h8.17v2.84h-8.17v6.13h-3.24v-16.43h11.85v2.91h-8.61Z"/>
    <path class="st0" d="M708.17,638.72v2.84h-12.49v-16.43h12.28v2.82h-9.08v3.92h8.66v2.75h-8.66v4.11h9.29Z"/>
    <path class="st0" d="M713.52,639.61l1.69-2.42c1.38,1.13,3.33,1.78,5.3,1.78,2.18,0,3.57-.82,3.57-2.14,0-1.24-1.15-1.9-3.73-2.21-4.48-.54-6.43-2.04-6.43-4.98s2.68-4.88,6.55-4.88c2.23,0,4.46.73,6.15,1.97l-1.6,2.3c-1.31-.96-2.91-1.48-4.46-1.48-2.04,0-3.45.85-3.45,2.04s1.06,1.83,3.61,2.16c4.55.61,6.6,2.16,6.6,5.02,0,3.08-2.72,5.12-6.81,5.12-2.56,0-5.14-.82-6.99-2.3Z"/>
    <path class="st0" d="M732.25,639.61l1.69-2.42c1.38,1.13,3.33,1.78,5.3,1.78,2.18,0,3.57-.82,3.57-2.14,0-1.24-1.15-1.9-3.73-2.21-4.48-.54-6.43-2.04-6.43-4.98s2.68-4.88,6.55-4.88c2.23,0,4.46.73,6.15,1.97l-1.6,2.3c-1.31-.96-2.91-1.48-4.46-1.48-2.04,0-3.45.85-3.45,2.04s1.06,1.83,3.61,2.16c4.55.61,6.6,2.16,6.6,5.02,0,3.08-2.72,5.12-6.81,5.12-2.56,0-5.14-.82-6.99-2.3Z"/>
    <path class="st0" d="M752.02,625.13h3.24v16.43h-3.24v-16.43Z"/>
    <path class="st0" d="M761.4,633.35c0-5.16,3.45-8.59,8.66-8.59s8.64,3.43,8.64,8.59-3.45,8.59-8.64,8.59-8.66-3.43-8.66-8.59ZM775.42,633.35c0-3.36-2.16-5.63-5.35-5.63s-5.38,2.28-5.38,5.63,2.16,5.63,5.38,5.63,5.35-2.28,5.35-5.63Z"/>
    <path class="st0" d="M799.19,625.13v16.43h-2.93l-8.22-11.01.05,4.88v6.13h-3.24v-16.43h2.91l8.22,11.03-.02-4.67v-6.36h3.24Z"/>
    <path class="st0" d="M817.74,638.37h-8.47l-1.36,3.19h-3.52l7.37-16.43h3.54l7.35,16.43h-3.54l-1.36-3.19ZM810.46,635.51h6.1l-3.05-7.16-3.05,7.16Z"/>
    <path class="st0" d="M827.85,625.13h3.24v13.45h8.5v2.98h-11.74v-16.43Z"/>
    <path class="st0" d="M844.16,639.61l1.69-2.42c1.39,1.13,3.33,1.78,5.3,1.78,2.18,0,3.57-.82,3.57-2.14,0-1.24-1.15-1.9-3.73-2.21-4.48-.54-6.43-2.04-6.43-4.98s2.68-4.88,6.55-4.88c2.23,0,4.46.73,6.15,1.97l-1.6,2.3c-1.31-.96-2.91-1.48-4.46-1.48-2.04,0-3.45.85-3.45,2.04s1.06,1.83,3.61,2.16c4.55.61,6.6,2.16,6.6,5.02,0,3.08-2.72,5.12-6.81,5.12-2.56,0-5.14-.82-7-2.3Z"/>
  </g>
  <g>
    <path class="st0" d="M473.32,240.69h0c0,55.75,45.19,100.94,100.94,100.94h6.63v-100.94h-107.57Z"/>
    <path class="st0" d="M352.2,127.06h285.8s-57.1,35.18-57.1,94.88h-126.03c-62.01,0-102.67-54.51-102.67-94.88h0Z"/>
    <path class="st0" d="M927.8,127.06h0c0,40.38-40.66,94.88-102.67,94.88h-127v-94.88h229.67Z"/>
    <path class="st0" d="M686.45,127.06v326.75h0c-42.68-9.23-95.17-34.03-95.17-112.19v-100.94c0-66.19,42.61-113.63,95.17-113.63h0Z"/>
  </g>
  <g>
    <polygon class="st0" points="421.47 491.29 524.5 491.29 524.5 509.15 482.15 509.15 482.15 576.47 462.66 576.47 462.66 509.26 421.47 509.26 421.47 491.29"/>
    <path class="st0" d="M632.63,491.29h-76.39c-15.72,0-28.47,12.75-28.47,28.47v28.24c0,15.72,12.75,28.47,28.47,28.47h76.39v-18.12h-73.82c-7,0-12.68-5.68-12.68-12.68v-1.09c0-1.5,1.22-2.72,2.72-2.72h83.78v-17.89h-83.62c-1.5,0-2.72-1.22-2.72-2.72h0c0-7,5.68-12.68,12.68-12.68h73.67s0-17.27,0-17.27Z"/>
    <path class="st0" d="M641.19,491.29v85.18h19.76v-68.38h58.03c5.84,0,10.58,4.74,10.58,10.58h0c0,5.84-4.74,10.58-10.58,10.58h-46.06c-2.23,0-4.04,1.81-4.04,4.04h0c0,2.55,1.19,4.96,3.22,6.51l48.12,36.67h28.78l-36.09-29.33s12.56.74,23.12-6.17c7.52-4.93,12.21-13.37,12.52-22.36.17-5.1-1.04-11.04-5.73-16.36,0,0-9.68-10.97-23.8-10.97h-77.83Z"/>
    <path class="st0" d="M825.31,491.29h-36.41c-18.34,0-33.22,14.87-33.22,33.22v51.96h18.67v-25.59h65.34v25.59h18.82v-51.96c0-18.34-14.87-33.22-33.22-33.22ZM774.36,533.88v-6.96c0-10.31,8.36-18.67,18.67-18.67h28c10.31,0,18.67,8.36,18.67,18.67v6.96h-65.34Z"/>
  </g>
  <g>
    <g>
      <path class="st0" d="M521.2,602.62v-14.77h5.03v14.7c0,4.2,2.37,6.79,6.2,6.79s6.16-2.59,6.16-6.79v-14.7h5.07v14.77c0,7-4.23,11.27-11.24,11.27s-11.24-4.27-11.24-11.27Z"/>
      <path class="st0" d="M576.65,587.85v25.53h-4.56l-12.77-17.11.07,7.59v9.52h-5.03v-25.53h4.52l12.77,17.14-.04-7.26v-9.88h5.03Z"/>
      <path class="st0" d="M587.7,587.85h5.03v25.53h-5.03v-25.53Z"/>
      <path class="st0" d="M608.86,592.37v7.08h12.69v4.41h-12.69v9.52h-5.03v-25.53h18.42v4.52h-13.39Z"/>
      <path class="st0" d="M630.38,600.61c0-8.03,5.36-13.35,13.46-13.35s13.42,5.33,13.42,13.35-5.36,13.35-13.42,13.35-13.46-5.33-13.46-13.35ZM652.16,600.61c0-5.22-3.36-8.75-8.32-8.75s-8.35,3.54-8.35,8.75,3.36,8.75,8.35,8.75,8.32-3.54,8.32-8.75Z"/>
      <path class="st0" d="M676.27,604.81h-4.41v8.57h-5.03v-25.53h12.15c5.54,0,9.12,3.43,9.12,8.54,0,4.09-2.3,7.04-6.24,8.06l7.55,8.94h-6.16l-6.97-8.57ZM678.65,592.33h-6.82v8.13h6.82c2.81,0,4.45-1.5,4.45-4.05s-1.64-4.09-4.45-4.09Z"/>
      <path class="st0" d="M725.85,587.85v25.53h-5.03v-17.25l-8.24,10.32h-1.02l-8.24-10.32v17.25h-5.03v-25.53h4.52l9.27,11.67,9.23-11.67h4.56Z"/>
      <path class="st0" d="M735.33,610.35l2.63-3.76c2.15,1.75,5.18,2.77,8.24,2.77,3.39,0,5.54-1.28,5.54-3.32,0-1.93-1.79-2.95-5.8-3.43-6.97-.84-9.99-3.17-9.99-7.73s4.16-7.59,10.18-7.59c3.47,0,6.93,1.13,9.56,3.06l-2.48,3.57c-2.04-1.5-4.52-2.3-6.93-2.3-3.17,0-5.36,1.31-5.36,3.17s1.64,2.84,5.62,3.35c7.08.95,10.25,3.36,10.25,7.81,0,4.78-4.23,7.95-10.58,7.95-3.98,0-7.99-1.28-10.87-3.58Z"/>
    </g>
    <path class="st0" d="M516.04,598.69l-94.54-.56-.03,4.41,93.87.56c.07-1.44.29-2.91.7-4.41Z"/>
    <path class="st0" d="M764.33,598.13c-.16.6-.35,1.18-.61,1.74-.45.99-1.07,1.86-1.77,2.66l96.56.57.03-4.41-94.2-.56Z"/>
  </g>
</svg>